<svg xmlns="http://www.w3.org/2000/svg" xmlns:xlink="http://www.w3.org/1999/xlink" contentStyleType="text/css" height="250.4055px" preserveAspectRatio="none" style="width:1134px;height:250px;background:#FFFFFF;" version="1.1" viewBox="0 0 1134 250" width="1134.749px" zoomAndPan="magnify"><defs/><g><!--class InferenceRule--><g id="elem_InferenceRule"><rect codeLine="6" fill="#F1F1F1" height="51.102" id="InferenceRule" rx="1.9811" ry="1.9811" style="stroke:#181818;stroke-width:0.3962112301120535;" width="120.1719" x="513.4898" y="114.9013"/><ellipse cx="535.1492" cy="127.58" fill="#B1B1B1" rx="8.7166" ry="8.7166" style="stroke:#181818;stroke-width:0.792422460224107;"/><path d="M531.9223,124.2242 L531.9223,122.514 L537.7699,122.514 L537.7699,124.2242 L535.8163,124.2242 L535.8163,130.6243 L537.7699,130.6243 L537.7699,132.3346 L531.9223,132.3346 L531.9223,130.6243 L533.8759,130.6243 L533.8759,124.2242 Z " fill="#000000"/><text fill="#000000" font-family="sans-serif" font-size="11.0939" font-style="italic" lengthAdjust="spacing" textLength="73.0963" x="548.415" y="131.7727">InferenceRule</text><line style="stroke:#181818;stroke-width:0.3962112301120535;" x1="514.2822" x2="632.8693" y1="140.2588" y2="140.2588"/><line style="stroke:#181818;stroke-width:0.3962112301120535;" x1="514.2822" x2="632.8693" y1="146.5982" y2="146.5982"/><ellipse cx="522.2064" cy="157.4893" fill="#A6A6A6" rx="2.3773" ry="2.3773" style="stroke:#545454;stroke-width:0.792422460224107;"/><text fill="#000000" font-family="sans-serif" font-size="11.0939" lengthAdjust="spacing" textLength="99.569" x="529.3382" y="160.4934">applyTo(): Boolean</text></g><!--class TopClassAssignmentRule--><g id="elem_TopClassAssignmentRule"><rect codeLine="10" fill="#F1F1F1" height="51.102" id="TopClassAssignmentRule" rx="1.9811" ry="1.9811" style="stroke:#181818;stroke-width:0.3962112301120535;" width="161.323" x="4.7545" y="194.1435"/><ellipse cx="16.6409" cy="206.8223" fill="#C2C2C2" rx="8.7166" ry="8.7166" style="stroke:#181818;stroke-width:0.792422460224107;"/><path d="M18.9969,211.294 Q18.5364,211.5308 18.0299,211.6492 Q17.5234,211.7676 16.9643,211.7676 Q14.9779,211.7676 13.932,210.4586 Q12.8862,209.1496 12.8862,206.6764 Q12.8862,204.1966 13.932,202.8876 Q14.9779,201.5787 16.9643,201.5787 Q17.5234,201.5787 18.0365,201.6971 Q18.5496,201.8155 18.9969,202.0523 L18.9969,204.2097 Q18.497,203.7493 18.0266,203.5355 Q17.5563,203.3218 17.0564,203.3218 Q15.9908,203.3218 15.4482,204.167 Q14.9055,205.0122 14.9055,206.6764 Q14.9055,208.334 15.4482,209.1792 Q15.9908,210.0245 17.0564,210.0245 Q17.5563,210.0245 18.0266,209.8107 Q18.497,209.5969 18.9969,209.1365 Z " fill="#000000"/><text fill="#000000" font-family="sans-serif" font-size="11.0939" lengthAdjust="spacing" textLength="135.9655" x="27.7348" y="211.015">TopClassAssignmentRule</text><line style="stroke:#181818;stroke-width:0.3962112301120535;" x1="5.547" x2="165.2851" y1="219.501" y2="219.501"/><line style="stroke:#181818;stroke-width:0.3962112301120535;" x1="5.547" x2="165.2851" y1="225.8404" y2="225.8404"/><ellipse cx="13.4712" cy="236.7316" fill="#A6A6A6" rx="2.3773" ry="2.3773" style="stroke:#545454;stroke-width:0.792422460224107;"/><text fill="#000000" font-family="sans-serif" font-size="11.0939" lengthAdjust="spacing" textLength="99.569" x="20.603" y="239.7357">applyTo(): Boolean</text></g><!--class ConjunctionDecompositionRule--><g id="elem_ConjunctionDecompositionRule"><rect codeLine="14" fill="#F1F1F1" height="51.102" id="ConjunctionDecompositionRule" rx="1.9811" ry="1.9811" style="stroke:#181818;stroke-width:0.3962112301120535;" width="194.9622" x="180.6723" y="194.1435"/><ellipse cx="192.5587" cy="206.8223" fill="#C2C2C2" rx="8.7166" ry="8.7166" style="stroke:#181818;stroke-width:0.792422460224107;"/><path d="M194.9146,211.294 Q194.4542,211.5308 193.9477,211.6492 Q193.4412,211.7676 192.8821,211.7676 Q190.8957,211.7676 189.8498,210.4586 Q188.8039,209.1496 188.8039,206.6764 Q188.8039,204.1966 189.8498,202.8876 Q190.8957,201.5787 192.8821,201.5787 Q193.4412,201.5787 193.9543,201.6971 Q194.4674,201.8155 194.9146,202.0523 L194.9146,204.2097 Q194.4147,203.7493 193.9444,203.5355 Q193.4741,203.3218 192.9742,203.3218 Q191.9086,203.3218 191.366,204.167 Q190.8233,205.0122 190.8233,206.6764 Q190.8233,208.334 191.366,209.1792 Q191.9086,210.0245 192.9742,210.0245 Q193.4741,210.0245 193.9444,209.8107 Q194.4147,209.5969 194.9146,209.1365 Z " fill="#000000"/><text fill="#000000" font-family="sans-serif" font-size="11.0939" lengthAdjust="spacing" textLength="169.6047" x="203.6526" y="211.015">ConjunctionDecompositionRule</text><line style="stroke:#181818;stroke-width:0.3962112301120535;" x1="181.4647" x2="374.8421" y1="219.501" y2="219.501"/><line style="stroke:#181818;stroke-width:0.3962112301120535;" x1="181.4647" x2="374.8421" y1="225.8404" y2="225.8404"/><ellipse cx="189.389" cy="236.7316" fill="#A6A6A6" rx="2.3773" ry="2.3773" style="stroke:#545454;stroke-width:0.792422460224107;"/><text fill="#000000" font-family="sans-serif" font-size="11.0939" lengthAdjust="spacing" textLength="99.569" x="196.5208" y="239.7357">applyTo(): Boolean</text></g><!--class ConjunctionCompositionRule--><g id="elem_ConjunctionCompositionRule"><rect codeLine="18" fill="#F1F1F1" height="51.102" id="ConjunctionCompositionRule" rx="1.9811" ry="1.9811" style="stroke:#181818;stroke-width:0.3962112301120535;" width="182.4653" x="389.8719" y="194.1435"/><ellipse cx="401.7582" cy="206.8223" fill="#C2C2C2" rx="8.7166" ry="8.7166" style="stroke:#181818;stroke-width:0.792422460224107;"/><path d="M404.1142,211.294 Q403.6537,211.5308 403.1472,211.6492 Q402.6408,211.7676 402.0817,211.7676 Q400.0952,211.7676 399.0493,210.4586 Q398.0035,209.1496 398.0035,206.6764 Q398.0035,204.1966 399.0493,202.8876 Q400.0952,201.5787 402.0817,201.5787 Q402.6408,201.5787 403.1538,201.6971 Q403.6669,201.8155 404.1142,202.0523 L404.1142,204.2097 Q403.6143,203.7493 403.144,203.5355 Q402.6737,203.3218 402.1737,203.3218 Q401.1082,203.3218 400.5655,204.167 Q400.0228,205.0122 400.0228,206.6764 Q400.0228,208.334 400.5655,209.1792 Q401.1082,210.0245 402.1737,210.0245 Q402.6737,210.0245 403.144,209.8107 Q403.6143,209.5969 404.1142,209.1365 Z " fill="#000000"/><text fill="#000000" font-family="sans-serif" font-size="11.0939" lengthAdjust="spacing" textLength="157.1078" x="412.8521" y="211.015">ConjunctionCompositionRule</text><line style="stroke:#181818;stroke-width:0.3962112301120535;" x1="390.6643" x2="571.5448" y1="219.501" y2="219.501"/><line style="stroke:#181818;stroke-width:0.3962112301120535;" x1="390.6643" x2="571.5448" y1="225.8404" y2="225.8404"/><ellipse cx="398.5885" cy="236.7316" fill="#A6A6A6" rx="2.3773" ry="2.3773" style="stroke:#545454;stroke-width:0.792422460224107;"/><text fill="#000000" font-family="sans-serif" font-size="11.0939" lengthAdjust="spacing" textLength="99.569" x="405.7203" y="239.7357">applyTo(): Boolean</text></g><!--class ExistentialExpansionRule--><g id="elem_ExistentialExpansionRule"><rect codeLine="22" fill="#F1F1F1" height="51.102" id="ExistentialExpansionRule" rx="1.9811" ry="1.9811" style="stroke:#181818;stroke-width:0.3962112301120535;" width="159.6004" x="586.7888" y="194.1435"/><ellipse cx="598.6752" cy="206.8223" fill="#C2C2C2" rx="8.7166" ry="8.7166" style="stroke:#181818;stroke-width:0.792422460224107;"/><path d="M601.0312,211.294 Q600.5707,211.5308 600.0642,211.6492 Q599.5577,211.7676 598.9986,211.7676 Q597.0122,211.7676 595.9663,210.4586 Q594.9204,209.1496 594.9204,206.6764 Q594.9204,204.1966 595.9663,202.8876 Q597.0122,201.5787 598.9986,201.5787 Q599.5577,201.5787 600.0708,201.6971 Q600.5839,201.8155 601.0312,202.0523 L601.0312,204.2097 Q600.5312,203.7493 600.0609,203.5355 Q599.5906,203.3218 599.0907,203.3218 Q598.0251,203.3218 597.4825,204.167 Q596.9398,205.0122 596.9398,206.6764 Q596.9398,208.334 597.4825,209.1792 Q598.0251,210.0245 599.0907,210.0245 Q599.5906,210.0245 600.0609,209.8107 Q600.5312,209.5969 601.0312,209.1365 Z " fill="#000000"/><text fill="#000000" font-family="sans-serif" font-size="11.0939" lengthAdjust="spacing" textLength="134.2429" x="609.7691" y="211.015">ExistentialExpansionRule</text><line style="stroke:#181818;stroke-width:0.3962112301120535;" x1="587.5813" x2="745.5968" y1="219.501" y2="219.501"/><line style="stroke:#181818;stroke-width:0.3962112301120535;" x1="587.5813" x2="745.5968" y1="225.8404" y2="225.8404"/><ellipse cx="595.5055" cy="236.7316" fill="#A6A6A6" rx="2.3773" ry="2.3773" style="stroke:#545454;stroke-width:0.792422460224107;"/><text fill="#000000" font-family="sans-serif" font-size="11.0939" lengthAdjust="spacing" textLength="99.569" x="602.6373" y="239.7357">applyTo(): Boolean</text></g><!--class ExistentialIntroductionRule--><g id="elem_ExistentialIntroductionRule"><rect codeLine="26" fill="#F1F1F1" height="51.102" id="ExistentialIntroductionRule" rx="1.9811" ry="1.9811" style="stroke:#181818;stroke-width:0.3962112301120535;" width="170.418" x="760.3294" y="194.1435"/><ellipse cx="772.2157" cy="206.8223" fill="#C2C2C2" rx="8.7166" ry="8.7166" style="stroke:#181818;stroke-width:0.792422460224107;"/><path d="M774.5717,211.294 Q774.1112,211.5308 773.6047,211.6492 Q773.0983,211.7676 772.5392,211.7676 Q770.5527,211.7676 769.5068,210.4586 Q768.461,209.1496 768.461,206.6764 Q768.461,204.1966 769.5068,202.8876 Q770.5527,201.5787 772.5392,201.5787 Q773.0983,201.5787 773.6113,201.6971 Q774.1244,201.8155 774.5717,202.0523 L774.5717,204.2097 Q774.0718,203.7493 773.6015,203.5355 Q773.1312,203.3218 772.6312,203.3218 Q771.5657,203.3218 771.023,204.167 Q770.4803,205.0122 770.4803,206.6764 Q770.4803,208.334 771.023,209.1792 Q771.5657,210.0245 772.6312,210.0245 Q773.1312,210.0245 773.6015,209.8107 Q774.0718,209.5969 774.5717,209.1365 Z " fill="#000000"/><text fill="#000000" font-family="sans-serif" font-size="11.0939" lengthAdjust="spacing" textLength="145.0605" x="783.3096" y="211.015">ExistentialIntroductionRule</text><line style="stroke:#181818;stroke-width:0.3962112301120535;" x1="761.1218" x2="929.955" y1="219.501" y2="219.501"/><line style="stroke:#181818;stroke-width:0.3962112301120535;" x1="761.1218" x2="929.955" y1="225.8404" y2="225.8404"/><ellipse cx="769.046" cy="236.7316" fill="#A6A6A6" rx="2.3773" ry="2.3773" style="stroke:#545454;stroke-width:0.792422460224107;"/><text fill="#000000" font-family="sans-serif" font-size="11.0939" lengthAdjust="spacing" textLength="99.569" x="776.1778" y="239.7357">applyTo(): Boolean</text></g><!--class SubsumptionPropagationRule--><g id="elem_SubsumptionPropagationRule"><rect codeLine="30" fill="#F1F1F1" height="51.102" id="SubsumptionPropagationRule" rx="1.9811" ry="1.9811" style="stroke:#181818;stroke-width:0.3962112301120535;" width="184.1175" x="945.36" y="194.1435"/><ellipse cx="957.2463" cy="206.8223" fill="#C2C2C2" rx="8.7166" ry="8.7166" style="stroke:#181818;stroke-width:0.792422460224107;"/><path d="M959.6023,211.294 Q959.1419,211.5308 958.6354,211.6492 Q958.1289,211.7676 957.5698,211.7676 Q955.5833,211.7676 954.5375,210.4586 Q953.4916,209.1496 953.4916,206.6764 Q953.4916,204.1966 954.5375,202.8876 Q955.5833,201.5787 957.5698,201.5787 Q958.1289,201.5787 958.642,201.6971 Q959.155,201.8155 959.6023,202.0523 L959.6023,204.2097 Q959.1024,203.7493 958.6321,203.5355 Q958.1618,203.3218 957.6619,203.3218 Q956.5963,203.3218 956.0536,204.167 Q955.511,205.0122 955.511,206.6764 Q955.511,208.334 956.0536,209.1792 Q956.5963,210.0245 957.6619,210.0245 Q958.1618,210.0245 958.6321,209.8107 Q959.1024,209.5969 959.6023,209.1365 Z " fill="#000000"/><text fill="#000000" font-family="sans-serif" font-size="11.0939" lengthAdjust="spacing" textLength="158.76" x="968.3402" y="211.015">SubsumptionPropagationRule</text><line style="stroke:#181818;stroke-width:0.3962112301120535;" x1="946.1524" x2="1128.6851" y1="219.501" y2="219.501"/><line style="stroke:#181818;stroke-width:0.3962112301120535;" x1="946.1524" x2="1128.6851" y1="225.8404" y2="225.8404"/><ellipse cx="954.0766" cy="236.7316" fill="#A6A6A6" rx="2.3773" ry="2.3773" style="stroke:#545454;stroke-width:0.792422460224107;"/><text fill="#000000" font-family="sans-serif" font-size="11.0939" lengthAdjust="spacing" textLength="99.569" x="961.2084" y="239.7357">applyTo(): Boolean</text></g><!--class ElReasoner--><g id="elem_ElReasoner"><rect codeLine="34" fill="#F1F1F1" height="77.2333" id="ElReasoner" rx="1.9811" ry="1.9811" style="stroke:#181818;stroke-width:0.3962112301120535;" width="199.2973" x="473.8686" y="9.5091"/><ellipse cx="540.8411" cy="22.1878" fill="#C2C2C2" rx="8.7166" ry="8.7166" style="stroke:#181818;stroke-width:0.792422460224107;"/><path d="M543.1971,26.6595 Q542.7366,26.8963 542.2302,27.0147 Q541.7237,27.1331 541.1646,27.1331 Q539.1781,27.1331 538.1322,25.8242 Q537.0864,24.5152 537.0864,22.042 Q537.0864,19.5622 538.1322,18.2532 Q539.1781,16.9442 541.1646,16.9442 Q541.7237,16.9442 542.2367,17.0626 Q542.7498,17.181 543.1971,17.4178 L543.1971,19.5753 Q542.6972,19.1149 542.2269,18.9011 Q541.7566,18.6873 541.2567,18.6873 Q540.1911,18.6873 539.6484,19.5326 Q539.1057,20.3778 539.1057,22.042 Q539.1057,23.6995 539.6484,24.5448 Q540.1911,25.39 541.2567,25.39 Q541.7566,25.39 542.2269,25.1762 Q542.6972,24.9625 543.1971,24.502 Z " fill="#000000"/><text fill="#000000" font-family="sans-serif" font-size="11.0939" lengthAdjust="spacing" textLength="58.6168" x="557.0858" y="26.3805">ElReasoner</text><line style="stroke:#181818;stroke-width:0.3962112301120535;" x1="474.6611" x2="672.3736" y1="34.8666" y2="34.8666"/><text fill="#000000" font-family="sans-serif" font-size="11.0939" lengthAdjust="spacing" textLength="103.6208" x="478.6232" y="48.7618">ontology: Ontology</text><text fill="#000000" font-family="sans-serif" font-size="11.0939" lengthAdjust="spacing" textLength="189.7883" x="478.6232" y="61.8275">inferenceRule: List&lt;InferenceRule&gt;</text><line style="stroke:#181818;stroke-width:0.3962112301120535;" x1="474.6611" x2="672.3736" y1="67.3373" y2="67.3373"/><ellipse cx="482.5853" cy="78.2285" fill="#A6A6A6" rx="2.3773" ry="2.3773" style="stroke:#545454;stroke-width:0.792422460224107;"/><text fill="#000000" font-family="sans-serif" font-size="11.0939" lengthAdjust="spacing" textLength="139.6002" x="489.7171" y="81.2326">compute(): Set&lt;Concept&gt;</text></g><polygon fill="none" points="513.2742,146.401,498.6207,143.0347,499.5316,152.5,513.2742,146.401" style="stroke:#181818;stroke-width:0.792422460224107;"/><path d="M499.0762,147.7674 C420.3355,155.3451 292.8314,169.6984 173.5405,194.1435 C171.2107,194.6209 168.8519,195.1267 166.4755,195.656 " fill="none" style="stroke:#181818;stroke-width:0.792422460224107;"/><polygon fill="none" points="513.1869,156.9537,498.1833,155.9798,500.5997,165.1767,513.1869,156.9537" style="stroke:#181818;stroke-width:0.792422460224107;"/><path d="M499.3915,160.5783 C458.6879,171.2725 418.0211,181.9571 371.771,194.1086 " fill="none" style="stroke:#181818;stroke-width:0.792422460224107;"/><polygon fill="none" points="544.3788,165.6225,530.3912,171.1365,536.4971,178.4262,544.3788,165.6225" style="stroke:#181818;stroke-width:0.792422460224107;"/><path d="M533.4442,174.7814 C522.6218,183.8463 521.2966,184.9563 510.4629,194.0306 " fill="none" style="stroke:#181818;stroke-width:0.792422460224107;"/><polygon fill="none" points="603.049,165.6225,610.9306,178.4262,617.0365,171.1365,603.049,165.6225" style="stroke:#181818;stroke-width:0.792422460224107;"/><path d="M613.9836,174.7814 C624.806,183.8463 626.1311,184.9563 636.9648,194.0306 " fill="none" style="stroke:#181818;stroke-width:0.792422460224107;"/><polygon fill="none" points="634.0353,158.2859,646.4439,166.776,649.0563,157.6328,634.0353,158.2859" style="stroke:#181818;stroke-width:0.792422460224107;"/><path d="M647.7501,162.2044 C684.8159,172.7946 719.1654,182.6088 760.1038,194.3055 " fill="none" style="stroke:#181818;stroke-width:0.792422460224107;"/><polygon fill="none" points="634.0082,147.9869,647.5981,154.4189,648.7393,144.9785,634.0082,147.9869" style="stroke:#181818;stroke-width:0.792422460224107;"/><path d="M648.1687,149.6987 C720.7088,158.4678 831.8611,173.2603 938.2282,194.1435 C940.5753,194.6043 942.9502,195.0848 945.3437,195.5817 " fill="none" style="stroke:#181818;stroke-width:0.792422460224107;"/><polygon fill="#181818" points="573.7139,86.4244,570.5442,91.179,573.7139,95.9335,576.8836,91.179,573.7139,86.4244" style="stroke:#181818;stroke-width:0.792422460224107;"/><path d="M573.7139,95.9335 C573.7139,105.4765 573.7139,105.9771 573.7139,114.6977 " fill="none" style="stroke:#181818;stroke-width:0.792422460224107;"/><!--SRC=[dPFDIaCn48NtUOguyezQ4TnSIa6lNHG4fUqBZEdqtcWo4v89jAZlRgvqqOgrhLbDmfavX_b8UhCK88BNdebD6zcZbfXHdOG8ZGVjOCLPTF8eGA2I0OVwvlPQjsYRLfGwRKL2glhzu80aUtTbsFUDWvHwSmjD6Qui2SO56DJhCwO5HYI3arp6lQjB3I6urOpFpYjzp-mGI7qgzJr6ppZKNN6Nact88yb1RJNJQoOZbka1IwZ0oNQNOvlh8rj7IvkaXBJWHii0bFxHE2Q9FC_cODDfVadPXqx_73b00uVdTHE4n8InI0iS9c77pQhIJ-kgUxMRo2hzMA8EjZ0EYqstvIpOsKnH1cM91eCCEwzjv8EFNcy7rz-KVw7Sew_tgtS1swFzoUWt-MuiIgcDnLyKxVQlK5y0]--></g></svg>